<svg width="40" height="28" viewBox="0 0 40 28" fill="none" xmlns="http://www.w3.org/2000/svg">
<path id="Vector" d="M0 22.8578L4.64345 20.0862C5.53941 21.6526 6.3543 22.9782 8.3091 22.9782C10.1829 22.9782 11.3644 22.2553 11.3644 19.4436V0.321664H17.0667V19.5231C17.0667 25.3478 13.6047 27.9993 8.55355 27.9993C3.99184 27.9993 1.3442 25.6697 0 22.8578ZM20.1641 22.2551L24.807 19.604C26.0294 21.5725 27.618 23.0186 30.4282 23.0186C32.7912 23.0186 34.2977 21.8534 34.2977 20.2466C34.2977 18.3185 32.7499 17.6354 30.1431 16.5109L28.7178 15.9078C24.6036 14.1809 21.8747 12.0115 21.8747 7.43206C21.8747 3.21387 25.1331 0 30.2248 0C33.85 0 36.4569 1.24552 38.3303 4.49937L33.8903 7.31162C32.9125 5.58432 31.854 4.90138 30.2246 4.90138C28.5545 4.90138 27.4954 5.94588 27.4954 7.31162C27.4954 8.99874 28.5545 9.68207 30.9982 10.7266L32.4237 11.329C37.2711 13.3779 40 15.4667 40 20.1663C40 25.2285 35.9676 28 30.5502 28C25.2553 28 21.8339 25.5091 20.1641 22.2551Z" fill="#986DFF"/>
</svg>
