<svg width="30" height="27" viewBox="0 0 30 27" fill="none" xmlns="http://www.w3.org/2000/svg">
<g id="Logo">
<path id="Vector" d="M0.654712 12.9287L3.9347 10.2928C4.69481 9.68216 5.81204 9.79608 6.42988 10.5471C7.04802 11.2984 6.93274 12.4026 6.17263 13.0133L4.58534 14.2889L16.1098 23.8867C16.8699 24.4973 16.9852 25.6016 16.3671 26.3526C16.0166 26.7791 15.5054 27 14.99 27C14.5969 27 14.2008 26.8714 13.8722 26.6071L0.654712 15.6492C0.240687 15.3163 0 14.8167 0 14.2889C0 13.7612 0.240687 13.2618 0.654712 12.9287V12.9287Z" fill="white"/>
<path id="Vector_2" d="M15.0864 4.94655e-05C16.0206 0.0067253 16.7721 0.687152 16.7646 1.52009L16.6192 25.5041C16.6117 26.337 15.848 27.0066 14.9139 27C14.6771 26.9984 14.4524 26.9535 14.2484 26.8739C13.6478 26.6389 13.2299 26.102 13.2353 25.4799L13.3811 1.49621C13.3886 0.663268 14.1519 -0.00662637 15.0864 4.94655e-05V4.94655e-05Z" fill="white"/>
<path id="Vector_3" d="M23.5764 14.3227L24.9187 13.173L20.1374 9.07737C19.295 8.35607 19.1676 7.05176 19.8523 6.16471C20.537 5.27699 21.7751 5.14278 22.6175 5.86407L29.2744 11.5663C29.7336 11.9598 30 12.5496 30 13.173C30 13.7963 29.7336 14.3864 29.2744 14.7796L26.0565 17.536C25.6919 17.8482 25.2534 18 24.8177 18C24.2463 18 23.6796 17.739 23.2913 17.2357C22.6066 16.3483 22.7343 15.0443 23.5764 14.3227Z" fill="#7B4AE2"/>
</g>
</svg>
