<svg width="54" height="53" viewBox="0 0 54 53" fill="none" xmlns="http://www.w3.org/2000/svg">
<g id="styled-components 2">
<path id="Vector" d="M36.4815 14.9327L36.3127 15.7962C36.0518 17.4326 36.1463 17.9007 36.8618 18.5081L37.5525 19.069L36.837 22.2004C36.4095 24.0686 35.8853 25.6344 35.5522 26.1489C35.2665 26.5927 34.9335 27.2465 34.8615 27.5976C34.7422 28.0171 34.3373 28.439 33.7185 28.8121C33.1718 29.1169 32.0985 29.934 31.338 30.5899C30.7305 31.1265 30.312 31.4555 30.0848 31.5969L29.3423 32.1732C29.1514 32.4511 29.0077 32.7577 28.917 33.0809C28.8653 33.3171 28.8945 33.474 28.971 33.5887C29.0452 33.6992 29.1735 33.7765 29.349 33.8251C29.5568 33.8728 29.7706 33.8899 29.9835 33.8759C30.4652 33.8435 30.9419 33.7606 31.4055 33.6285C31.563 33.5866 31.6868 33.5469 31.7948 33.5115C31.9613 33.3105 32.346 32.9307 33.0278 32.2704C34.8368 30.5192 35.5275 29.5607 34.8142 29.8191C34.551 29.9119 34.6703 29.6779 35.1225 29.2096C36.0765 28.2976 36.6232 26.9196 37.7663 22.5979C38.6708 19.186 38.6708 19.1375 39.3367 19.1375C39.6495 19.1375 40.5338 19.1905 40.5338 19.1905V14.9327H38.5043H36.4815ZM45.1193 21.9221C44.9753 21.9221 44.7367 22.1341 44.595 22.3682C44.334 22.7879 44.6422 23.044 48.5707 25.4511C50.904 26.902 52.785 28.1386 52.7377 28.2336C52.6905 28.302 50.7847 29.5189 48.501 30.9211C44.3565 33.443 44.334 33.4674 44.7143 33.9819C45.1913 34.5891 44.7143 34.799 50.094 31.5041L54 29.0506V27.2045L49.6418 24.5634C47.286 23.1146 45.2385 21.9465 45.1193 21.9221ZM8.928 22.1805C8.80875 22.1805 6.76125 23.373 4.4055 24.7974L0 27.4386V29.2847L4.38075 31.9722C6.81075 33.443 8.85825 34.6599 8.95275 34.6599C9.04725 34.6599 9.2385 34.4479 9.42975 34.1916C9.7155 33.7477 9.47475 33.5601 5.45175 31.0602C1.62 28.6995 1.215 28.3727 1.5975 28.1165C1.836 27.9531 3.645 26.8534 5.598 25.6631C10.0508 22.9755 9.81225 23.161 9.4545 22.6001C9.31275 22.3682 9.072 22.1585 8.93025 22.1805H8.928ZM28.467 22.2314C27.81 22.2269 26.397 23.2096 22.167 26.5994C21.9848 27.0256 21.969 27.3194 22.0522 27.5092C22.1062 27.6395 22.2052 27.7301 22.3425 27.7964C22.4775 27.8626 22.653 27.9024 22.8465 27.9177C23.2312 27.9509 23.6858 27.8912 24.0525 27.8206L24.3 27.7654C24.3848 27.6539 24.496 27.5644 24.624 27.5049C24.885 27.3635 25.9808 26.383 27.0765 25.3319C29.0048 23.415 29.457 22.5494 28.6717 22.2689C28.6073 22.2437 28.5386 22.231 28.4692 22.2314H28.467ZM33.408 23.563C32.8297 23.5784 31.788 24.2365 30.0038 25.6344C29.1083 26.3476 28.5413 26.7319 28.2375 26.8114L27.0585 27.7256C26.6153 28.5206 26.55 29.0131 26.667 29.2847C26.6963 29.3518 26.7388 29.4123 26.7921 29.4632C26.8454 29.514 26.9083 29.5539 26.9775 29.5806C27.1494 29.6473 27.3326 29.681 27.5175 29.68C27.9592 29.6754 28.3981 29.6123 28.8225 29.4924C29.0436 29.4341 29.2622 29.3662 29.4772 29.2891L29.5425 29.2626L29.6618 29.2009C29.8867 28.916 30.4043 28.3794 31.0523 27.761C33.0997 25.8221 34.146 24.4441 33.9323 23.9295C33.8355 23.68 33.669 23.5541 33.408 23.563ZM27.954 25.948C27.7875 25.9656 27.414 26.2482 26.7412 26.8269C25.7692 27.6705 24.7095 28.1562 24.3428 27.9399C24.2575 27.9587 24.172 27.9764 24.0863 27.9929C23.7127 28.0657 23.247 28.1254 22.8308 28.0922C22.6346 28.0806 22.4424 28.0334 22.2638 27.9531C22.0953 27.8775 21.9609 27.7439 21.8858 27.5777C21.8025 27.379 21.8025 27.1316 21.897 26.8159L20.4345 27.9951L17.1248 30.6826V35.0396L27.9697 26.6546C27.9677 26.5628 27.9798 26.4712 28.0058 26.383C28.089 26.0871 28.0845 25.9369 27.954 25.9501V25.948ZM32.6205 27.3591C32.4563 27.3591 32.1817 27.5865 31.743 28.0436C31.1468 28.6686 30.2085 29.2737 29.7112 29.3974L29.6348 29.4371C29.5531 29.4702 29.4706 29.5011 29.3872 29.5299C29.2522 29.574 29.0767 29.627 28.8742 29.68C28.4692 29.7882 27.9653 29.8876 27.5153 29.8766C27.3031 29.8764 27.093 29.8358 26.8965 29.7574C26.7112 29.6824 26.5629 29.5399 26.4825 29.3599C26.352 29.0529 26.4037 28.6222 26.6895 28.0105L17.1225 35.4062V38.0672H21.3255L30.24 31.195C30.4718 30.9432 30.8205 30.5987 31.2907 30.1681C32.5508 29.022 32.8365 28.6266 32.8365 28.0415C32.8365 27.5865 32.7847 27.3569 32.6205 27.3569V27.3591ZM34.7423 31.6654L33.9795 32.4117C33.552 32.8092 32.7892 33.2995 32.2673 33.5092L32.1638 33.5535L32.157 33.5645L32.1345 33.5866C32.1142 33.602 32.1053 33.6042 32.0895 33.6109C31.8811 33.6882 31.6694 33.7567 31.455 33.8162C30.9783 33.9525 30.4879 34.0375 29.9925 34.0702C29.7583 34.085 29.5232 34.0648 29.295 34.0106C29.0971 33.9678 28.9223 33.8545 28.8045 33.6926C28.6965 33.5291 28.665 33.3105 28.7257 33.0411C28.774 32.8493 28.8459 32.6639 28.9395 32.489L21.7462 38.0672H31.3133L32.4563 36.782C34.0268 34.9845 34.7423 33.6992 34.7423 32.5995V31.6654Z" fill="#986DFF"/>
</g>
</svg>
