<svg width="34" height="34" viewBox="0 0 34 34" fill="none" xmlns="http://www.w3.org/2000/svg">
<g id="teste">
<path id="Vector" d="M16.9999 0C26.3893 0 34 7.61175 34 17.0001C34 26.3884 26.3893 34 16.9999 34C7.61058 34 0 26.3883 0 17.0001C0 7.61186 7.61069 0 16.9999 0Z" fill="#926FF7"/>
<path id="Icon" fill-rule="evenodd" clip-rule="evenodd" d="M12.6444 12H20.5778C22.0383 12 23.2222 13.0994 23.2222 14.4556V19.9806C23.2222 21.3367 22.0383 22.4361 20.5778 22.4361H12.6444C11.184 22.4361 10 21.3367 10 19.9806V14.4556C10 13.0994 11.184 12 12.6444 12ZM17.5367 17.8626L21.7281 14.9774C21.9152 14.8497 21.9565 14.6059 21.8207 14.431C21.7559 14.3475 21.6575 14.2919 21.5479 14.2769C21.4383 14.2619 21.3269 14.2887 21.2389 14.3512L17.0012 17.2181C16.8951 17.3213 16.7482 17.3797 16.5946 17.3797C16.441 17.3797 16.294 17.3213 16.188 17.2181L11.9833 14.3512C11.8958 14.2906 11.7858 14.265 11.6779 14.28C11.5699 14.295 11.4728 14.3493 11.4082 14.431C11.2709 14.6043 11.3092 14.8478 11.4941 14.9774L15.6591 17.8319C15.9183 18.0602 16.2605 18.1896 16.6177 18.1941C16.9579 18.1941 17.2857 18.0758 17.5367 17.8626Z" fill="#090E16"/>
</g>
</svg>
