<svg width="26" height="22" viewBox="0 0 26 22" fill="none" xmlns="http://www.w3.org/2000/svg">
<g id="Vector">
<path fill-rule="evenodd" clip-rule="evenodd" d="M7.70711 8.29289C8.09763 8.68342 8.09763 9.31658 7.70711 9.70711L2.41421 15L7.70711 20.2929C8.09763 20.6834 8.09763 21.3166 7.70711 21.7071C7.31658 22.0976 6.68342 22.0976 6.29289 21.7071L0.292893 15.7071C-0.0976311 15.3166 -0.0976311 14.6834 0.292893 14.2929L6.29289 8.29289C6.68342 7.90237 7.31658 7.90237 7.70711 8.29289Z" fill="#5E17EB"/>
<path fill-rule="evenodd" clip-rule="evenodd" d="M6 1C6 0.447715 6.44772 0 7 0H18C20.1217 0 22.1566 0.842855 23.6569 2.34315C25.1571 3.84344 26 5.87827 26 8C26 10.1217 25.1571 12.1566 23.6569 13.6569C22.1566 15.1571 20.1217 16 18 16H1C0.447715 16 1.49012e-08 15.5523 1.49012e-08 15C1.49012e-08 14.4477 0.447715 14 1 14H18C19.5913 14 21.1174 13.3679 22.2426 12.2426C23.3679 11.1174 24 9.5913 24 8C24 6.4087 23.3679 4.88258 22.2426 3.75736C21.1174 2.63214 19.5913 2 18 2H7C6.44772 2 6 1.55228 6 1Z" fill="#5E17EB"/>
</g>
</svg>
